<svg width="53" height="20" viewBox="0 0 53 20" fill="none" xmlns="http://www.w3.org/2000/svg">
<g clip-path="url(#clip0_1_304)">
<path d="M0 11.1776V19.2224C0 19.8358 0.686052 20.2086 1.21439 19.8747L7.63332 15.8523C8.12223 15.5494 8.12223 14.8506 7.63332 14.5399L1.21439 10.5253C0.686052 10.1914 0 10.5642 0 11.1776Z" fill="#f5ac0d"/>
<path d="M33 0C32 0 31.3333 0.666667 31.3333 1.66667V3.33333C31.3333 4.33333 32 5 33 5C34 5 34.6667 4.33333 34.6667 3.33333V1.66667C34.6667 0.666667 34 0 33 0ZM19.9987 5.33203C19.582 5.33203 19.1667 5.5 18.8333 5.83333C18.1667 6.5 18.1667 7.50065 18.8333 8.16732L19.9987 9.33268C20.6654 9.99935 21.666 9.99935 22.3327 9.33268C22.9993 8.66602 22.9993 7.66536 22.3327 6.9987L21.1673 5.83333C20.834 5.5 20.4154 5.33203 19.9987 5.33203ZM46.0013 5.33203C45.5846 5.33203 45.166 5.5 44.8327 5.83333L43.6673 6.9987C43.0007 7.66536 43.0007 8.66602 43.6673 9.33268C44.334 9.99935 45.3346 9.99935 46.0013 9.33268L47.1667 8.16732C47.8333 7.50065 47.8333 6.5 47.1667 5.83333C46.8333 5.5 46.418 5.33203 46.0013 5.33203Z" fill="#f5ac0d"/>
<path d="M14.6667 18.3333C13.6667 18.3333 13 19 13 20H18C18 19 17.3333 18.3333 16.3333 18.3333H14.6667Z" fill="#f5ac0d"/>
<path d="M33 8.33333C29.9058 8.33333 26.9383 9.5625 24.7504 11.7504C22.5625 13.9383 21.3333 16.9058 21.3333 20H44.6667C44.6667 16.9058 43.4375 13.9383 41.2496 11.7504C39.0617 9.5625 36.0942 8.33333 33 8.33333Z" fill="#f5ac0d"/>
<path d="M49.6667 18.3333C48.6667 18.3333 48 19 48 20H53C53 19 52.3333 18.3333 51.3333 18.3333H49.6667Z" fill="#f5ac0d"/>
</g>
<defs>
<clipPath id="clip0_1_304">
<rect width="53" height="20" fill="white"/>
</clipPath>
</defs>
</svg>
