<svg width="40" height="33" viewBox="0 0 40 33" fill="none" xmlns="http://www.w3.org/2000/svg">
<g clip-path="url(#clip0_1_303)">
<path d="M24.3576 0L15.6424 0C14.9779 0 14.5741 0.686052 14.9358 1.21439L19.2934 7.63332C19.6215 8.12223 20.3786 8.12223 20.7151 7.63332L25.0642 1.21439C25.426 0.686052 25.0222 0 24.3576 0Z" fill="#F3F691"/>
<path d="M20 13C19 13 18.3333 13.6667 18.3333 14.6667V16.3333C18.3333 17.3333 19 18 20 18C21 18 21.6667 17.3333 21.6667 16.3333V14.6667C21.6667 13.6667 21 13 20 13ZM6.9987 18.332C6.58203 18.332 6.16667 18.5 5.83333 18.8333C5.16667 19.5 5.16667 20.5007 5.83333 21.1673L6.9987 22.3327C7.66536 22.9993 8.66602 22.9993 9.33268 22.3327C9.99935 21.666 9.99935 20.6654 9.33268 19.9987L8.16732 18.8333C7.83398 18.5 7.41536 18.332 6.9987 18.332ZM33.0013 18.332C32.5846 18.332 32.166 18.5 31.8327 18.8333L30.6673 19.9987C30.0007 20.6654 30.0007 21.666 30.6673 22.3327C31.334 22.9993 32.3346 22.9993 33.0013 22.3327L34.1667 21.1673C34.8333 20.5007 34.8333 19.5 34.1667 18.8333C33.8333 18.5 33.418 18.332 33.0013 18.332Z" fill="#F3F691"/>
<path d="M1.66667 31.3333C0.666667 31.3333 0 32 0 33H5C5 32 4.33333 31.3333 3.33333 31.3333H1.66667Z" fill="#F3F691"/>
<path d="M20 21.3333C16.9058 21.3333 13.9383 22.5625 11.7504 24.7504C9.5625 26.9383 8.33333 29.9058 8.33333 33H31.6667C31.6667 29.9058 30.4375 26.9383 28.2496 24.7504C26.0617 22.5625 23.0942 21.3333 20 21.3333Z" fill="#F3F691"/>
<path d="M36.6667 31.3333C35.6667 31.3333 35 32 35 33H40C40 32 39.3333 31.3333 38.3333 31.3333H36.6667Z" fill="#F3F691"/>
</g>
<defs>
<clipPath id="clip0_1_303">
<rect width="40" height="33" fill="white"/>
</clipPath>
</defs>
</svg>
