<svg width="54" height="20" viewBox="0 0 54 20" fill="none" xmlns="http://www.w3.org/2000/svg">
<g clip-path="url(#clip0_1_309)">
<path d="M0.5 11.1776V19.2224C0.5 19.8358 1.18605 20.2086 1.71439 19.8747L8.13332 15.8523C8.62223 15.5494 8.62223 14.8506 8.13332 14.54L1.71439 10.5253C1.18605 10.1914 0.5 10.5642 0.5 11.1776Z" fill="#F14544"/>
<path d="M33.5 0C32.5 0 31.8333 0.666667 31.8333 1.66667V3.33333C31.8333 4.33333 32.5 5 33.5 5C34.5 5 35.1667 4.33333 35.1667 3.33333V1.66667C35.1667 0.666667 34.5 0 33.5 0ZM20.4987 5.33203C20.082 5.33203 19.6667 5.5 19.3333 5.83333C18.6667 6.5 18.6667 7.50065 19.3333 8.16732L20.4987 9.33268C21.1654 9.99935 22.166 9.99935 22.8327 9.33268C23.4993 8.66602 23.4993 7.66536 22.8327 6.9987L21.6673 5.83333C21.334 5.5 20.9154 5.33203 20.4987 5.33203ZM46.5013 5.33203C46.0846 5.33203 45.666 5.5 45.3327 5.83333L44.1673 6.9987C43.5007 7.66536 43.5007 8.66602 44.1673 9.33268C44.834 9.99935 45.8346 9.99935 46.5013 9.33268L47.6667 8.16732C48.3333 7.50065 48.3333 6.5 47.6667 5.83333C47.3333 5.5 46.918 5.33203 46.5013 5.33203Z" fill="#F3F691"/>
<path d="M15.1667 18.3333C14.1667 18.3333 13.5 19 13.5 20H18.5C18.5 19 17.8333 18.3333 16.8333 18.3333H15.1667Z" fill="#F3F691"/>
<path d="M33.5 8.33333C30.4058 8.33333 27.4383 9.5625 25.2504 11.7504C23.0625 13.9383 21.8333 16.9058 21.8333 20H45.1667C45.1667 16.9058 43.9375 13.9383 41.7496 11.7504C39.5617 9.5625 36.5942 8.33333 33.5 8.33333Z" fill="#F3F691"/>
<path d="M50.1667 18.3333C49.1667 18.3333 48.5 19 48.5 20H53.5C53.5 19 52.8333 18.3333 51.8333 18.3333H50.1667Z" fill="#F3F691"/>
</g>
<defs>
<clipPath id="clip0_1_309">
<rect width="53" height="20" fill="white" transform="translate(0.5)"/>
</clipPath>
</defs>
</svg>
