<svg width="40" height="34" viewBox="0 0 40 34" fill="none" xmlns="http://www.w3.org/2000/svg">
<g clip-path="url(#clip0_1_338)">
<path d="M24.3576 1.5L15.6424 1.5C14.9779 1.5 14.5741 2.18605 14.9358 2.71439L19.2934 9.13332C19.6215 9.62223 20.3786 9.62223 20.7151 9.13332L25.0642 2.71439C25.426 2.18605 25.0222 1.5 24.3576 1.5Z" fill="#F14544"/>
<path d="M20 13.5C19 13.5 18.3333 14.1667 18.3333 15.1667V16.8333C18.3333 17.8333 19 18.5 20 18.5C21 18.5 21.6667 17.8333 21.6667 16.8333V15.1667C21.6667 14.1667 21 13.5 20 13.5ZM6.9987 18.832C6.58203 18.832 6.16667 19 5.83333 19.3333C5.16667 20 5.16667 21.0007 5.83333 21.6673L6.9987 22.8327C7.66536 23.4993 8.66602 23.4993 9.33268 22.8327C9.99935 22.166 9.99935 21.1654 9.33268 20.4987L8.16732 19.3333C7.83398 19 7.41536 18.832 6.9987 18.832ZM33.0013 18.832C32.5846 18.832 32.166 19 31.8327 19.3333L30.6673 20.4987C30.0007 21.1654 30.0007 22.166 30.6673 22.8327C31.334 23.4993 32.3346 23.4993 33.0013 22.8327L34.1667 21.6673C34.8333 21.0007 34.8333 20 34.1667 19.3333C33.8333 19 33.418 18.832 33.0013 18.832Z" fill="#F3F691"/>
<path d="M1.66667 31.8333C0.666667 31.8333 0 32.5 0 33.5H5C5 32.5 4.33333 31.8333 3.33333 31.8333H1.66667Z" fill="#F3F691"/>
<path d="M20 21.8333C16.9058 21.8333 13.9383 23.0625 11.7504 25.2504C9.5625 27.4383 8.33333 30.4058 8.33333 33.5H31.6667C31.6667 30.4058 30.4375 27.4383 28.2496 25.2504C26.0617 23.0625 23.0942 21.8333 20 21.8333Z" fill="#F3F691"/>
<path d="M36.6667 31.8333C35.6667 31.8333 35 32.5 35 33.5H40C40 32.5 39.3333 31.8333 38.3333 31.8333H36.6667Z" fill="#F3F691"/>
</g>
<defs>
<clipPath id="clip0_1_338">
<rect width="40" height="33" fill="white" transform="translate(0 0.5)"/>
</clipPath>
</defs>
</svg>
