<svg width="52" height="20" viewBox="0 0 52 20" fill="none" xmlns="http://www.w3.org/2000/svg">
<g clip-path="url(#clip0_1_368)">
<path d="M20 0C19 0 18.3333 0.666667 18.3333 1.66667V3.33333C18.3333 4.33333 19 5 20 5C21 5 21.6667 4.33333 21.6667 3.33333V1.66667C21.6667 0.666667 21 0 20 0ZM6.9987 5.33203C6.58203 5.33203 6.16667 5.5 5.83333 5.83333C5.16667 6.5 5.16667 7.50065 5.83333 8.16732L6.9987 9.33268C7.66536 9.99935 8.66602 9.99935 9.33268 9.33268C9.99935 8.66602 9.99935 7.66536 9.33268 6.9987L8.16732 5.83333C7.83398 5.5 7.41536 5.33203 6.9987 5.33203ZM33.0013 5.33203C32.5846 5.33203 32.166 5.5 31.8327 5.83333L30.6673 6.9987C30.0007 7.66536 30.0007 8.66602 30.6673 9.33268C31.334 9.99935 32.3346 9.99935 33.0013 9.33268L34.1667 8.16732C34.8333 7.50065 34.8333 6.5 34.1667 5.83333C33.8333 5.5 33.418 5.33203 33.0013 5.33203Z" fill="#F3F691"/>
<path d="M1.66667 18.3333C0.666667 18.3333 0 19 0 20H5C5 19 4.33333 18.3333 3.33333 18.3333H1.66667Z" fill="#F3F691"/>
<path d="M20 8.33333C16.9058 8.33333 13.9383 9.5625 11.7504 11.7504C9.5625 13.9383 8.33333 16.9058 8.33333 20H31.6667C31.6667 16.9058 30.4375 13.9383 28.2496 11.7504C26.0617 9.5625 23.0942 8.33333 20 8.33333Z" fill="#F3F691"/>
<path d="M36.6667 18.3333C35.6667 18.3333 35 19 35 20H40C40 19 39.3333 18.3333 38.3333 18.3333H36.6667Z" fill="#F3F691"/>
<path d="M52 19.2224V11.1776C52 10.5642 51.3139 10.1914 50.7856 10.5253L44.3667 14.5477C43.8778 14.8506 43.8778 15.5494 44.3667 15.86L50.7856 19.8747C51.3139 20.2086 52 19.8358 52 19.2224Z" fill="#F14544"/>
</g>
<defs>
<clipPath id="clip0_1_368">
<rect width="52" height="20" fill="white"/>
</clipPath>
</defs>
</svg>
