<svg width="36" height="36" viewBox="0 0 36 36" fill="none" xmlns="http://www.w3.org/2000/svg">
<g id="Add" clip-path="url(#clip0_1_283)">
<path id="Vector" d="M18 4C9.16375 4 2 9.82 2 17C2 20.0975 3.33812 22.9375 5.5625 25.1712C4.77875 28.3156 2.16875 31.125 2.1375 31.1562C2.07035 31.2272 2.02544 31.3162 2.00833 31.4124C1.99121 31.5086 2.00264 31.6076 2.0412 31.6974C2.07975 31.7871 2.14375 31.8636 2.22529 31.9174C2.30682 31.9712 2.40232 31.9999 2.5 32C6.64125 32 9.75 30.0156 11.2875 28.7887C13.4339 29.5932 15.7078 30.0036 18 30C26.8369 30 34 24.18 34 17C34 9.82 26.8369 4 18 4ZM24 18.5C24 18.6326 23.9473 18.7598 23.8536 18.8536C23.7598 18.9473 23.6326 19 23.5 19H20V22.5C20 22.6326 19.9473 22.7598 19.8536 22.8536C19.7598 22.9473 19.6326 23 19.5 23H16.5C16.3674 23 16.2402 22.9473 16.1464 22.8536C16.0527 22.7598 16 22.6326 16 22.5V19H12.5C12.3674 19 12.2402 18.9473 12.1464 18.8536C12.0527 18.7598 12 18.6326 12 18.5V15.5C12 15.3674 12.0527 15.2402 12.1464 15.1464C12.2402 15.0527 12.3674 15 12.5 15H16V11.5C16 11.3674 16.0527 11.2402 16.1464 11.1464C16.2402 11.0527 16.3674 11 16.5 11H19.5C19.6326 11 19.7598 11.0527 19.8536 11.1464C19.9473 11.2402 20 11.3674 20 11.5V15H23.5C23.6326 15 23.7598 15.0527 23.8536 15.1464C23.9473 15.2402 24 15.3674 24 15.5V18.5Z" fill="#F3F691"/>
</g>
<defs>
<clipPath id="clip0_1_283">
<rect width="36" height="36" fill="white"/>
</clipPath>
</defs>
</svg>
