<svg width="33" height="30" viewBox="0 0 33 30" fill="none" xmlns="http://www.w3.org/2000/svg">
<path fill-rule="evenodd" clip-rule="evenodd" d="M12.3604 2.40026C14.2001 -0.800085 18.8001 -0.800085 20.6383 2.40026L32.3534 22.7992C34.1916 25.9996 31.8915 30 28.2137 30H4.78493C1.10711 30 -1.19132 25.9996 0.646789 22.7992L12.3588 2.40026H12.3604ZM16.5001 10.7964C16.8169 10.7964 17.1208 10.9228 17.3448 11.1479C17.5689 11.3729 17.6947 11.6782 17.6947 11.9965V17.9971C17.6947 18.3154 17.5689 18.6207 17.3448 18.8457C17.1208 19.0708 16.8169 19.1972 16.5001 19.1972C16.1833 19.1972 15.8794 19.0708 15.6554 18.8457C15.4314 18.6207 15.3055 18.3154 15.3055 17.9971V11.9965C15.3055 11.6782 15.4314 11.3729 15.6554 11.1479C15.8794 10.9228 16.1833 10.7964 16.5001 10.7964ZM16.5001 23.9978C16.8169 23.9978 17.1208 23.8713 17.3448 23.6463C17.5689 23.4212 17.6947 23.1159 17.6947 22.7976C17.6947 22.4793 17.5689 22.1741 17.3448 21.949C17.1208 21.7239 16.8169 21.5975 16.5001 21.5975C16.1833 21.5975 15.8794 21.7239 15.6554 21.949C15.4314 22.1741 15.3055 22.4793 15.3055 22.7976C15.3055 23.1159 15.4314 23.4212 15.6554 23.6463C15.8794 23.8713 16.1833 23.9978 16.5001 23.9978Z" fill="#F3F691"/>
</svg>
