<svg width="35" height="24" viewBox="0 0 35 24" fill="none" xmlns="http://www.w3.org/2000/svg">
<path d="M28.8 10.425C29.0196 9.85179 29.1429 9.225 29.1429 8.57143C29.1429 5.73214 26.8393 3.42857 24 3.42857C22.9446 3.42857 21.9589 3.75 21.1446 4.29643C19.6607 1.725 16.8911 0 13.7143 0C8.97857 0 5.14286 3.83571 5.14286 8.57143C5.14286 8.71607 5.14821 8.86071 5.15357 9.00536C2.15357 10.0607 0 12.9214 0 16.2857C0 20.5446 3.45536 24 7.71429 24H27.4286C31.2161 24 34.2857 20.9304 34.2857 17.1429C34.2857 13.8268 31.9286 11.0571 28.8 10.425ZM21.6804 15.1768L16.0339 20.8232C15.7018 21.1554 15.1554 21.1554 14.8232 20.8232L9.17679 15.1768C8.63572 14.6357 9.02143 13.7143 9.78214 13.7143H13.2857V7.71429C13.2857 7.24286 13.6714 6.85714 14.1429 6.85714H16.7143C17.1857 6.85714 17.5714 7.24286 17.5714 7.71429V13.7143H21.075C21.8357 13.7143 22.2214 14.6357 21.6804 15.1768Z" fill="#F3F691"/>
</svg>
