<svg width="26" height="18" viewBox="0 0 26 18" fill="none" xmlns="http://www.w3.org/2000/svg">
<path d="M21.6 7.81875C21.7647 7.38884 21.8571 6.91875 21.8571 6.42857C21.8571 4.29911 20.1295 2.57143 18 2.57143C17.2085 2.57143 16.4692 2.8125 15.8585 3.22232C14.7455 1.29375 12.6683 0 10.2857 0C6.73393 0 3.85714 2.87679 3.85714 6.42857C3.85714 6.53705 3.86116 6.64554 3.86518 6.75402C1.61518 7.54554 0 9.69107 0 12.2143C0 15.4085 2.59152 18 5.78571 18H20.5714C23.4121 18 25.7143 15.6978 25.7143 12.8571C25.7143 10.3701 23.9464 8.29286 21.6 7.81875ZM16.2603 11.3826L12.0254 15.6174C11.7763 15.8665 11.3665 15.8665 11.1174 15.6174L6.88259 11.3826C6.47679 10.9768 6.76607 10.2857 7.33661 10.2857H9.96429V5.78571C9.96429 5.43214 10.2536 5.14286 10.6071 5.14286H12.5357C12.8893 5.14286 13.1786 5.43214 13.1786 5.78571V10.2857H15.8063C16.3768 10.2857 16.6661 10.9768 16.2603 11.3826Z" fill="#49484B"/>
</svg>
